#!OML:ASF F:\VICON\USERDATA\INSTALL\rory3\rory3.ASF
:FULLY-SPECIFIED
:DEGREES
208
root -14.2684 17.965 12.3232 -3.58558 43.5996 -2.01854
lowerback 11.5729 0.243168 0.141779
upperback 1.21966 0.412679 0.865891
thorax -5.21922 0.218733 0.759474
lowerneck -21 -5.1669 -11.9657
upperneck 30.5174 -5.3622 7.26061
head 14.6212 -2.61721 4.05488
rclavicle 3.92662e-014 -1.66482e-014
rhumerus -36.7761 -11.1686 -78.3583
rradius 22.8482
rwrist 13.8299
rhand -14.8956 8.23389
rfingers 7.12502
rthumb 11.2655 -21.4436
lclavicle 3.92662e-014 -1.66482e-014
lhumerus -30.8444 -1.61264 88.9496
lradius 38.0484
lwrist -4.02917
lhand -18.6308 30.6739
lfingers 7.12502
lthumb 7.66155 60.5151
rfemur -4.83488 0.0125214 16.5064
rtibia 23.1743
rfoot -11.6582 -3.1975
rtoes -12.6628
lfemur -9.49348 -1.10632 -16.4826
ltibia 50.4751
lfoot -4.70526 -5.7377
ltoes 3.97745
209
root -14.2583 17.9738 12.4017 -3.52776 44.9564 -2.1519
lowerback 11.1576 0.288742 0.147696
upperback 1.48082 0.476947 0.960685
thorax -4.71597 0.251683 0.846483
lowerneck -21.1092 -5.02209 -11.7787
upperneck 30.3673 -5.03786 6.82116
head 14.5157 -2.51106 3.89363
rclavicle 3.1085e-014 -1.07344e-014
rhumerus -36.2607 -10.4831 -78.4087
rradius 23.1504
rwrist 13.1531
rhand -14.5352 7.89878
rfingers 7.12502
rthumb 11.613 -21.7594
lclavicle 3.1085e-014 -1.07344e-014
lhumerus -30.4209 -1.25385 88.8238
lradius 37.5912
lwrist -4.67509
lhand -18.0551 29.6726
lfingers 7.12502
lthumb 8.21713 59.4928
rfemur -4.32847 -0.386135 16.7535
rtibia 22.8641
rfoot -11.6892 -4.12459
rtoes -13.2185
lfemur -10.3631 -0.201166 -16.1406
ltibia 50.3599
lfoot -6.30676 -5.72803
ltoes 0.50283
210
root -14.2484 17.9786 12.4772 -3.58551 46.3855 -2.49251
lowerback 11.0851 0.327216 0.469883
upperback 1.42626 0.567898 0.97625
thorax -4.73118 0.291115 0.667623
lowerneck -20.8506 -4.89582 -11.5733
upperneck 30.2774 -4.82955 6.48385
head 14.3762 -2.44278 3.75553
rclavicle -7.42523e-014 -1.88845e-015
rhumerus -36.3378 -10.0698 -78.343
rradius 23.4541
rwrist 12.6641
rhand -15.1617 8.03371
rfingers 7.12502
rthumb 11.0088 -21.6576
lclavicle -7.42523e-014 -1.88845e-015
lhumerus -30.5756 -1.39113 88.6815
lradius 37.3414
lwrist -4.96948
lhand -17.7342 28.0649
lfingers 7.12502
lthumb 8.52683 57.8727
rfemur -3.9275 -0.766697 17.1598
rtibia 22.6524
rfoot -11.8863 -5.14598
rtoes -12.7384
lfemur -11.3479 0.656787 -15.6845
ltibia 50.1877
lfoot -7.50179 -5.8096
ltoes -2.08547
211
root -14.2381 17.9807 12.5499 -3.60157 47.8627 -2.7929
lowerback 11.1817 0.36378 0.860245
upperback 1.25413 0.661602 0.888937
thorax -4.96063 0.328209 0.341395
lowerneck -20.6003 -4.8837 -11.5197
upperneck 30.3262 -4.84346 6.46321
head 14.3424 -2.4449 3.73925
rclavicle -1.38839e-014 -1.47598e-014
rhumerus -36.6415 -9.87319 -78.288
rradius 23.8315
rwrist 12.3352
rhand -15.7473 8.23809
rfingers 7.12502
rthumb 10.4439 -21.4825
lclavicle -1.38839e-014 -1.47598e-014
lhumerus -30.8838 -1.92099 88.5291
lradius 37.0671
lwrist -4.3402
lhand -17.8344 26.8586
lfingers 7.12502
lthumb 8.43014 56.6704
rfemur -3.59683 -1.22102 17.522
rtibia 22.4935
rfoot -12.0578 -6.19504
rtoes -12.8765
lfemur -12.4306 1.54837 -15.3183
ltibia 49.9841
lfoot -8.00079 -5.83619
ltoes -2.39621
212
root -14.2246 17.9778 12.6205 -3.53038 49.2761 -2.85582
lowerback 11.2908 0.405619 1.02464
upperback 1.17927 0.736899 0.82838
thorax -5.09708 0.360769 0.172894
lowerneck -20.6164 -4.93464 -11.8269
upperneck 30.5116 -4.87303 6.6933
head 14.451 -2.46046 3.89037
rclavicle 1.29993e-013 -2.92213e-014
rhumerus -36.7443 -9.39591 -78.2797
rradius 24.1264
rwrist 12.0818
rhand -16.1341 8.32162
rfingers 7.12502
rthumb 10.0708 -21.4174
lclavicle 1.29993e-013 -2.92213e-014
lhumerus -31.0126 -1.98427 88.3101
lradius 36.7691
lwrist -4.0607
lhand -17.3191 26.3825
lfingers 7.12502
lthumb 8.92746 56.1737
rfemur -3.18974 -1.73608 17.6801
rtibia 22.3283
rfoot -12.2254 -7.08869
rtoes -13.0549
lfemur -13.3937 2.45295 -15.1986
ltibia 49.7334
lfoot -8.23964 -5.40078
ltoes -1.31146
213
root -14.2082 17.971 12.688 -3.73667 50.7362 -3.27744
lowerback 11.4006 0.437327 1.44531
upperback 1.1245 0.836149 0.843373
thorax -5.20977 0.400456 -0.0651377
lowerneck -20.6936 -5.00189 -12.0715
upperneck 30.6812 -4.90161 6.80776
head 14.5613 -2.48345 3.98212
rclavicle 2.33137e-014 1.36167e-014
rhumerus -36.8084 -9.02811 -78.1388
rradius 24.3812
rwrist 11.9588
rhand -16.6064 8.37072
rfingers 7.12502
rthumb 9.61507 -21.3899
lclavicle 2.33137e-014 1.36167e-014
lhumerus -31.0524 -1.93367 88.0936
lradius 36.5408
lwrist -4.14783
lhand -17.2579 26.9961
lfingers 7.12502
lthumb 8.98645 56.7847
rfemur -2.79034 -2.41185 18.0689
rtibia 22.1782
rfoot -12.4065 -7.88321
rtoes -13.539
lfemur -14.3559 3.26387 -14.8553
ltibia 49.4303
lfoot -8.65562 -5.08259
ltoes 0.873109
214
root -14.1885 17.9656 12.755 -4.00115 52.1829 -3.88519
lowerback 11.354 0.483879 2.02006
upperback 1.04353 0.970032 0.83179
thorax -5.2579 0.453004 -0.421832
lowerneck -20.5444 -5.00046 -12.0187
upperneck 30.6159 -4.91495 6.77808
head 14.4981 -2.48405 3.95718
rclavicle -7.98866e-015 5.86415e-015
rhumerus -36.9728 -8.86175 -77.94
rradius 24.6943
rwrist 12.0165
rhand -16.7803 8.586
rfingers 7.12502
rthumb 9.44728 -21.1823
lclavicle -7.98866e-015 5.86415e-015
lhumerus -31.0762 -2.16365 87.8781
lradius 36.2616
lwrist -4.20377
lhand -18.5547 27.8839
lfingers 7.12502
lthumb 7.73492 57.7225
rfemur -2.51893 -3.01918 18.591
rtibia 22.0573
rfoot -12.5676 -8.7445
rtoes -14.1299
lfemur -15.4507 4.13206 -14.4641
ltibia 49.0595
lfoot -9.33589 -4.8562
ltoes 0.0723265
215
root -14.1674 17.9616 12.8201 -4.04656 53.5236 -4.18424
lowerback 11.2647 0.588376 2.32323
upperback 0.991688 1.14314 0.797039
thorax -5.25239 0.530839 -0.654886
lowerneck -20.4244 -4.99775 -11.9494
upperneck 30.4959 -4.91565 6.71064
head 14.4138 -2.48179 3.91371
rclavicle -1.83068e-014 -8.94531e-015
rhumerus -37.165 -8.42563 -77.8035
rradius 25.0816
rwrist 11.8378
rhand -16.8126 8.76215
rfingers 7.12502
rthumb 9.4162 -21.0075
lclavicle -1.83068e-014 -8.94531e-015
lhumerus -31.0598 -2.30239 87.6648
lradius 35.947
lwrist -4.52359
lhand -19.4297 28.2305
lfingers 7.12502
lthumb 6.89041 58.0983
rfemur -2.25908 -3.39801 18.9062
rtibia 21.9292
rfoot -12.8105 -9.66476
rtoes -13.9118
lfemur -16.5132 5.07782 -14.3742
ltibia 48.5957
lfoot -9.93514 -4.49443
ltoes -2.67038
216
root -14.1444 17.9571 12.8808 -4.12678 54.841 -4.4645
lowerback 11.1633 0.706539 2.49308
upperback 1.05324 1.32193 0.865003
thorax -5.12419 0.618627 -0.704769
lowerneck -20.6112 -5.07633 -12.0865
upperneck 30.4897 -4.92228 6.63839
head 14.4573 -2.5056 3.90477
rclavicle -3.0998e-014 1.93815e-015
rhumerus -37.0347 -7.57741 -77.7294
rradius 25.368
rwrist 10.9082
rhand -17.0643 9.02449
rfingers 7.12502
rthumb 9.17333 -20.756
lclavicle -3.0998e-014 1.93815e-015
lhumerus -30.9809 -2.34023 87.6311
lradius 35.8344
lwrist -4.68453
lhand -19.9049 28.2403
lfingers 7.12502
lthumb 6.43161 58.1227
rfemur -1.9542 -3.76396 19.1649
rtibia 21.7876
rfoot -13.1473 -10.4631
rtoes -13.0773
lfemur -17.5129 6.00258 -14.3724
ltibia 48.0375
lfoot -10.3931 -4.12562
ltoes -4.38532
